# xmcd
#
# Track frame offsets:
#	150
#	16839
#	30633
#	47689
#	62679
#	77364
#	95499
#	117796
#	134507
#	148649
#	171141
#	187246
#	203113
#	218935
#	236332
#
# Disc length: 3395 seconds
#
# Revision: 1
# Processed by: cddbd v1.5.2PL0 Copyright (c) Steve Scherf et al.
# Submitted via: audiograbber 1.83.01
#
DISCID=cc0d410f
DTITLE=Various Artist - CDX Volume 580 (September 30, 2013)
DYEAR=2013
DGENRE=Country
TTITLE0=Dan and Shay - 19 You and Me
TTITLE1=Brett Eldredge - Beat Of The Music 
TTITLE2=Rodney Atkins - Doin' It Right
TTITLE3=Little Big Town - Sober 
TTITLE4=Keith Urban (Duet with Miranda Lambert) - We Were Us
TTITLE5=Kenny Rogers (Duet with Dolly Parton) - You Can't Make Old Friends 
TTITLE6=Old Crow Medicine Show - Dixieland Delight
TTITLE7=Aaron and Amanda Crabb - If I'm Guilty
TTITLE8=Samantha Landrum - What If 
TTITLE9=Little River Band - You Dream, I'll Drive
TTITLE10=Mitch Goudy - Blow These Speakers Out 
TTITLE11=Seventh Sundown - Down on Hatchie
TTITLE12=Chris Weaver Band - Raise The Dead (Radio Edit)
TTITLE13=Chris Weaver Band - Raise The Dead (Album Version)
TTITLE14=Miss Jeanie - Summer's Gone
EXTD=
EXTT0=
EXTT1=
EXTT2=
EXTT3=
EXTT4=
EXTT5=
EXTT6=
EXTT7=
EXTT8=
EXTT9=
EXTT10=
EXTT11=
EXTT12=
EXTT13=
EXTT14=
PLAYORDER=
